OpenSim_Sub05_CSBaseline_RCS.mot
version=1
nRows=78
nColumns=11
inDegrees=no
endheader
time	Top_Thigh	Med_Thigh	Bot_Thigh	Top_Shank	2nd_Top_Shank	2nd_Bot_Shank	Bot_Shank	BNOx	BNOy	BNOZ
26.39000000	1221.20348052	1306.27468191	1182.22764136	1120.85659189	1327.12108529	1040.89918106	1097.90157930	0	0	0
26.40000000	1223.92346126	1307.43062755	1181.27809434	1120.73313891	1325.51603377	1040.69100877	1097.89810512	0	0	0
26.41000000	1227.24385139	1309.21791537	1180.66393308	1120.72924589	1323.88064872	1040.45783555	1098.07633317	0	0	0
26.42000000	1230.82736383	1311.35808087	1180.28504877	1120.81619280	1322.38213234	1040.22870945	1098.41434244	0	0	0
26.43000000	1234.33671150	1313.57265956	1180.04133263	1120.96525961	1321.18768681	1040.03267853	1098.89021192	0	0	0
26.44000000	1237.46576589	1315.60809152	1179.84149723	1121.15007491	1320.44700145	1039.89608330	1099.48298967	0	0	0
26.45000000	1240.13867979	1317.39487727	1179.65945083	1121.36162500	1320.18033442	1039.82525363	1100.17888546	0	0	0
26.46000000	1242.38281872	1318.94601377	1179.49832258	1121.59867597	1320.34993246	1039.81755064	1100.96731900	0	0	0
26.47000000	1244.22603508	1320.27488710	1179.36137943	1121.86003062	1320.91776869	1039.87029309	1101.83772515	0	0	0
26.48000000	1245.69618124	1321.39488335	1179.25188837	1122.14449174	1321.84581621	1039.98079976	1102.77953875	0	0	0
26.49000000	1246.82110961	1322.31938862	1179.17311635	1122.45086211	1323.09604812	1040.14638945	1103.78219465	0	0	0
26.50000000	1247.62867255	1323.06178898	1179.12833036	1122.77794454	1324.63043754	1040.36438094	1104.83512770	0	0	0
26.51000000	1248.14672247	1323.63547053	1179.12079736	1123.12454180	1326.41095756	1040.63209300	1105.92777276	0	0	0
26.52000000	1248.40311174	1324.05381935	1179.15378432	1123.48945669	1328.39958129	1040.94684442	1107.04956467	0	0	0
26.53000000	1248.42569276	1324.33022154	1179.23055822	1123.87149200	1330.55828184	1041.30595399	1108.18993828	0	0	0
26.54000000	1248.24231791	1324.47806317	1179.35438603	1124.26945052	1332.84903232	1041.70674048	1109.33832844	0	0	0
26.55000000	1247.88083957	1324.51073033	1179.52853472	1124.68213505	1335.23380582	1042.14652268	1110.48417000	0	0	0
26.56000000	1247.36911014	1324.44160913	1179.75627125	1125.10834836	1337.67457547	1042.62261937	1111.61689781	0	0	0
26.57000000	1246.73498200	1324.28408563	1180.04086260	1125.54689326	1340.13331435	1043.13234934	1112.72594672	0	0	0
26.58000000	1246.00630754	1324.05154593	1180.38557574	1125.99657253	1342.57199558	1043.67303136	1113.80075158	0	0	0
26.59000000	1245.21093914	1323.75737613	1180.79367764	1126.45618897	1344.95259227	1044.24198422	1114.83074724	0	0	0
26.60000000	1244.37672919	1323.41496229	1181.26843528	1126.92454536	1347.23707751	1044.83652670	1115.80536855	0	0	0
26.61000000	1243.53153008	1323.03769052	1181.81311562	1127.40044449	1349.38742442	1045.45397759	1116.71405036	0	0	0
26.62000000	1242.70319419	1322.63894690	1182.43098563	1127.88268916	1351.36560611	1046.09165566	1117.54622751	0	0	0
26.63000000	1241.91957391	1322.23211752	1183.12531229	1128.37008216	1353.13359567	1046.74687971	1118.29133486	0	0	0
26.64000000	1241.20852163	1321.83058846	1183.89936256	1128.86142627	1354.65336621	1047.41696851	1118.93880726	0	0	0
26.65000000	1240.59788974	1321.44774582	1184.75640342	1129.35552429	1355.88689084	1048.09924084	1119.47807956	0	0	0
26.66000000	1240.11553062	1321.09697568	1185.69970184	1129.85117901	1356.79614267	1048.79101549	1119.89858660	0	0	0
26.67000000	1239.78436428	1320.79084636	1186.72903075	1130.34774363	1357.34986501	1049.48856559	1120.19152499	0	0	0
26.68000000	1239.57639086	1320.53348372	1187.80809196	1130.85025362	1357.58669431	1050.17736931	1120.36627900	0	0	0
26.69000000	1239.43357050	1320.32403309	1188.87930726	1131.36709666	1357.58650016	1050.83653637	1120.44296263	0	0	0
26.70000000	1239.29747505	1320.16157538	1189.88482340	1131.90670377	1357.42968513	1051.44509420	1120.44182858	0	0	0
26.71000000	1239.10967639	1320.04519153	1190.76678712	1132.47750597	1357.19665174	1051.98207021	1120.38312953	0	0	0
26.72000000	1238.81174639	1319.97396247	1191.46734518	1133.08793427	1356.96780257	1052.42649182	1120.28711818	0	0	0
26.73000000	1238.34525692	1319.94696913	1191.92864432	1133.74641969	1356.82354014	1052.75738645	1120.17404721	0	0	0
26.74000000	1237.65177984	1319.96329244	1192.09283128	1134.46139325	1356.84426700	1052.95378151	1120.06416933	0	0	0
26.75000000	1236.67347727	1320.02199031	1191.90269386	1135.24098837	1357.10959067	1052.99504987	1119.97761998	0	0	0
26.76000000	1235.39817807	1320.12033931	1191.35061737	1136.07031297	1357.63760607	1052.88729136	1119.92546459	0	0	0
26.77000000	1233.89111951	1320.25259654	1190.51305836	1136.89544518	1358.34214007	1052.68190988	1119.90339424	0	0	0
26.78000000	1232.22503699	1320.41272661	1189.47461698	1137.65868249	1359.12691956	1052.43469771	1119.90561076	0	0	0
26.79000000	1230.47266595	1320.59469413	1188.31989336	1138.30232240	1359.89567145	1052.20144714	1119.92631601	0	0	0
26.80000000	1228.70674181	1320.79246373	1187.13348766	1138.76866241	1360.55212263	1052.03795048	1119.95971181	0	0	0
26.81000000	1227.00000000	1321.00000000	1186.00000000	1139.00000000	1361.00000000	1052	1120	0	0	0
26.82000000	1225.41705015	1321.20571122	1184.98553315	1138.95889623	1361.17151753	1052.12597931	1120.04151149	0	0	0
26.83000000	1223.98999875	1321.37578023	1184.08220033	1138.68896635	1361.11283742	1052.38463726	1120.07909343	0	0	0
26.84000000	1222.74282652	1321.47083356	1183.26361735	1138.25408916	1360.89860894	1052.72731401	1120.10772205	0	0	0
26.85000000	1221.69951414	1321.45149770	1182.50340005	1137.71814347	1360.60348135	1053.10534971	1120.12237358	0	0	0
26.86000000	1220.88404232	1321.27839917	1181.77516426	1137.14500809	1360.30210393	1053.47008453	1120.11802424	0	0	0
26.87000000	1220.32039178	1320.91216447	1181.05252579	1136.59856182	1360.06912594	1053.77285862	1120.08965025	0	0	0
26.88000000	1220.03254320	1320.31342011	1180.30910049	1136.14268347	1359.97919665	1053.96501215	1120.03222785	0	0	0
26.89000000	1220.03841993	1319.44766560	1179.52038883	1135.83589347	1360.10035628	1054.00154884	1119.94200966	0	0	0
26.90000000	1220.26530917	1318.35331498	1178.69009137	1135.65653516	1360.40175429	1053.89229029	1119.83434732	0	0	0
26.91000000	1220.57072623	1317.12491204	1177.84361711	1135.52123137	1360.77641378	1053.68925700	1119.73929489	0	0	0
26.92000000	1220.81039166	1315.85844442	1177.00693348	1135.34501727	1361.11539965	1053.44555495	1119.68728460	0	0	0
26.93000000	1220.84002599	1314.64989975	1176.20600791	1135.04292805	1361.30977678	1053.21429015	1119.70874873	0	0	0
26.94000000	1220.51534978	1313.59526567	1175.46680783	1134.52999887	1361.25061006	1053.04856860	1119.83411951	0	0	0
26.95000000	1219.69335345	1312.78996217	1174.81526740	1133.72200966	1360.82972532	1053.00108275	1120.09345817	0	0	0
26.96000000	1218.32927977	1312.28548959	1174.27474645	1132.59236279	1359.99782433	1053.09253013	1120.48811826	0	0	0
26.97000000	1216.54491598	1312.05890143	1173.86424121	1131.21213459	1358.80540755	1053.28937455	1120.97079186	0	0	0
26.98000000	1214.47818171	1312.08003985	1173.60232519	1129.66186265	1357.31264250	1053.55282648	1121.48945745	0	0	0
26.99000000	1212.26699659	1312.31874704	1173.50757191	1128.02208452	1355.57969670	1053.84409639	1121.99209350	0	0	0
27.00000000	1210.04928025	1312.74486516	1173.59855491	1126.37333778	1353.66673765	1054.12439474	1122.42667849	0	0	0
27.01000000	1207.96295232	1313.32823641	1173.89384770	1124.79616000	1351.63393288	1054.35493199	1122.74119091	0	0	0
27.02000000	1206.14593243	1314.03870295	1174.41202381	1123.37108875	1349.54144989	1054.49691862	1122.88360922	0	0	0
27.03000000	1204.73614021	1314.84610696	1175.17165676	1122.17866160	1347.44945620	1054.51156508	1122.80191190	0	0	0
27.04000000	1203.87149529	1315.72029062	1176.19132008	1121.29941611	1345.41811933	1054.36008184	1122.44407744	0	0	0
27.05000000	1203.68991730	1316.63109610	1177.48958730	1120.81388987	1343.50760678	1054.00367937	1121.75808430	0	0	0
27.06000000	1204.32932587	1317.54836558	1179.08503193	1120.80262043	1341.77808607	1053.40356814	1120.69191097	0	0	0
27.07000000	1205.91944410	1318.44187682	1180.99397201	1121.33965866	1340.28568997	1052.52322354	1119.19679068	0	0	0
27.08000000	1208.40147493	1319.27992590	1183.18084928	1122.34986119	1338.99375224	1051.37821460	1117.29881641	0	0	0
27.09000000	1211.52810113	1320.02932725	1185.55822920	1123.60889041	1337.77280759	1050.03620399	1115.09894082	0	0	0
27.10000000	1215.04380896	1320.65683086	1188.03642174	1124.88592201	1336.48935600	1048.56711927	1112.70137136	0	0	0
27.11000000	1218.69308467	1321.12918673	1190.52573686	1125.95013168	1335.00989747	1047.04088805	1110.21031546	0	0	0
27.12000000	1222.22041449	1321.41314487	1192.93648453	1126.57069509	1333.20093198	1045.52743792	1107.72998058	0	0	0
27.13000000	1225.37028469	1321.47545526	1195.17897472	1126.51678795	1330.92895950	1044.09669645	1105.36457414	0	0	0
27.14000000	1227.88718151	1321.28286791	1197.16351738	1125.55758593	1328.06048002	1042.81859125	1103.21830361	0	0	0
27.15000000	1229.51559120	1320.80213283	1198.80042248	1123.46226471	1324.46199353	1041.76304991	1101.39537641	0	0	0
27.16000000	1230	1320	1200	1120	1320	1041	1100	0	0	0
